<svg height="512pt" viewBox="-53 0 511 512" width="512pt" xmlns="http://www.w3.org/2000/svg" xmlns:xlink="http://www.w3.org/1999/xlink"><linearGradient id="a" gradientUnits="userSpaceOnUse" x1=".4997" x2="406.3883" y1="256" y2="256"><stop offset="0" stop-color="#00f2fe"/><stop offset=".0208" stop-color="#03effe"/><stop offset=".2931" stop-color="#24d2fe"/><stop offset=".5538" stop-color="#3cbdfe"/><stop offset=".7956" stop-color="#4ab0fe"/><stop offset="1" stop-color="#4facfe"/></linearGradient><path d="m406.386719 350v142c0 11.046875-8.953125 20-20 20-11.042969 0-20-8.953125-20-20v-142c0-11.046875 8.957031-20 20-20 11.046875 0 20 8.953125 20 20zm-17.570313-254.859375-77.570312-77.566406c-11.332032-11.332031-26.402344-17.574219-42.425782-17.574219h-188.320312c-44.113281 0-80 35.886719-80 80v352c0 44.113281 35.886719 80 80 80h56.890625c11.042969 0 20-8.953125 20-20s-8.957031-20-20-20h-56.890625c-22.054688 0-40-17.945312-40-40v-352c0-22.054688 17.945312-40 40-40h188.320312c5.339844 0 10.363282 2.082031 14.140626 5.859375l77.570312 77.566406c3.777344 3.777344 5.855469 8.800781 5.855469 14.144531v131.429688c0 11.046875 8.957031 20 20 20 11.046875 0 20-8.953125 20-20v-131.433594c0-16.027344-6.238281-31.09375-17.570313-42.425781zm-61.429687 299.859375v97c0 11.046875-8.953125 20-20 20-11.042969 0-20-8.953125-20-20v-28h-50v28c0 11.046875-8.953125 20-20 20-11.042969 0-20-8.953125-20-20v-97c0-35.839844 29.160156-65 65-65 35.84375 0 65 29.160156 65 65zm-40 29v-29c0-13.785156-11.214844-25-25-25-13.785157 0-25 11.214844-25 25v29zm0 0" fill="url(#a)"/></svg>